<svg xmlns="http://www.w3.org/2000/svg" width="359" height="155" fill="none"><g clip-path="url(#a)"><path stroke="#BBB" stroke-width=".6" d="M17.436 19.547H-3.626a1 1 0 0 0-.85.474l-11.099 17.937a1 1 0 0 0-.007 1.04L-4.474 57.53a1 1 0 0 0 .857.486h21.043a1 1 0 0 0 .87-.507L28.82 38.978a1 1 0 0 0-.007-1L18.298 20.041a1 1 0 0 0-.862-.494ZM72.29 19.547H51.226a1 1 0 0 0-.85.474L39.278 37.958a1 1 0 0 0-.007 1.04L50.38 57.53a1 1 0 0 0 .858.486H72.28a1 1 0 0 0 .87-.507l10.523-18.531a1 1 0 0 0-.007-1L73.152 20.041a1 1 0 0 0-.863-.494ZM46.51 78.152H25.45a1 1 0 0 0-.851.474L13.5 96.564a1 1 0 0 0-.007 1.04L24.6 116.135c.18.302.506.486.858.486h21.043a1 1 0 0 0 .87-.506l10.523-18.532a1 1 0 0 0-.007-1L47.374 78.648a1 1 0 0 0-.863-.495ZM126.29 19.547h-21.061a1 1 0 0 0-.851.474L93.279 37.958a1 1 0 0 0-.007 1.04L104.38 57.53a1 1 0 0 0 .858.486h21.043a1 1 0 0 0 .87-.507l10.523-18.531a1 1 0 0 0-.007-1l-10.514-17.937a1 1 0 0 0-.863-.494ZM101.478 78.152H80.416a1 1 0 0 0-.85.474l-11.1 17.938a1 1 0 0 0-.006 1.04l11.108 18.531c.18.302.506.486.857.486h21.043a1 1 0 0 0 .87-.506l10.524-18.532c.176-.31.173-.691-.007-1L102.34 78.648a1 1 0 0 0-.862-.495ZM22.376 136.152H1.314c-.346 0-.668.18-.85.474l-11.099 17.937c-.196.319-.2.72-.007 1.041L.466 174.135c.18.302.506.486.858.486h21.043a1 1 0 0 0 .87-.506l10.523-18.532a1 1 0 0 0-.007-.999L23.24 136.647a1 1 0 0 0-.863-.495ZM180.385 19.547h-21.062a1 1 0 0 0-.85.474l-11.099 17.937a1 1 0 0 0-.007 1.04l11.108 18.532c.18.301.506.486.858.486h21.043c.36 0 .692-.194.869-.507l10.524-18.531c.176-.31.173-.692-.007-1l-10.514-17.937a1 1 0 0 0-.863-.494ZM156.392 78.152H135.33a1 1 0 0 0-.85.474l-11.099 17.938a1 1 0 0 0-.007 1.04l11.108 18.531c.18.302.506.486.857.486h21.044a1 1 0 0 0 .869-.506l10.524-18.532c.176-.31.173-.691-.007-1l-10.515-17.936a1 1 0 0 0-.862-.495ZM77.29 136.152H56.228c-.346 0-.668.18-.85.474L44.28 154.563c-.196.319-.2.72-.007 1.041l11.108 18.531c.18.302.506.486.858.486H77.28a1 1 0 0 0 .87-.506l10.523-18.532a1 1 0 0 0-.007-.999l-10.514-17.937a1 1 0 0 0-.863-.495ZM234.386 19.547h-21.062a1 1 0 0 0-.85.474l-11.099 17.937a1 1 0 0 0-.007 1.04l11.108 18.532c.18.301.506.486.857.486h21.044a1 1 0 0 0 .869-.507l10.524-18.531c.176-.31.173-.692-.007-1l-10.514-17.937a1 1 0 0 0-.863-.494ZM288.481 19.547h-21.062a1 1 0 0 0-.85.474L255.47 37.958a1 1 0 0 0-.007 1.04l11.108 18.532c.18.301.506.486.857.486h21.043a1 1 0 0 0 .87-.507l10.523-18.531a1 1 0 0 0-.006-1l-10.515-17.937a1 1 0 0 0-.862-.494Z"/><path stroke="#BBB" stroke-width=".6" d="M151.585 38.781h-25.851a1 1 0 0 0-.849.472L111.262 61.17a1 1 0 0 0-.007 1.044l13.632 22.64a1 1 0 0 0 .856.484h25.833a1 1 0 0 0 .868-.505l12.915-22.64a1 1 0 0 0-.007-1.002l-12.905-21.917a1 1 0 0 0-.862-.493ZM122.067-19.684H96.216a1 1 0 0 0-.85.473L81.744 2.706a1 1 0 0 0-.007 1.043l13.631 22.64a1 1 0 0 0 .857.484h25.832a1 1 0 0 0 .869-.505l12.914-22.64a1 1 0 0 0-.007-1.002l-12.905-21.917a1 1 0 0 0-.861-.493ZM284.266-19.684h-25.683a1 1 0 0 0-.85.475L244.194 2.708a1 1 0 0 0-.008 1.039l13.549 22.64c.18.301.506.486.858.486h25.664a1 1 0 0 0 .87-.507l12.835-22.64a1 1 0 0 0-.006-.998l-12.827-21.917a1 1 0 0 0-.863-.495ZM338.639-19.684h-25.683a1 1 0 0 0-.85.475L298.567 2.708a1 1 0 0 0-.008 1.039l13.549 22.64c.18.301.506.486.858.486h25.664a1 1 0 0 0 .87-.507l12.835-22.64a1 1 0 0 0-.006-.998l-12.827-21.917a1 1 0 0 0-.863-.495ZM96.878 38.781H71.027a1 1 0 0 0-.85.472L56.556 61.17a1 1 0 0 0-.007 1.044l13.632 22.64a1 1 0 0 0 .856.484H96.87a1 1 0 0 0 .868-.505l12.915-22.64a1 1 0 0 0-.007-1.002L97.74 39.274a1 1 0 0 0-.862-.493ZM67.36-19.684H41.51a1 1 0 0 0-.85.473L27.038 2.706a1 1 0 0 0-.008 1.043l13.632 22.64a1 1 0 0 0 .857.484H67.35a1 1 0 0 0 .869-.505l12.914-22.64a1 1 0 0 0-.007-1.002L68.222-19.191a1 1 0 0 0-.862-.493ZM229.894-19.684h-25.683a1 1 0 0 0-.85.475L189.822 2.708a1 1 0 0 0-.008 1.039l13.549 22.64c.18.301.506.486.858.486h25.664a1 1 0 0 0 .87-.507l12.835-22.64a1 1 0 0 0-.007-.998l-12.826-21.917a1 1 0 0 0-.863-.495ZM42.171 38.781H16.32a1 1 0 0 0-.85.472L1.849 61.17a1 1 0 0 0-.007 1.044l13.632 22.64a1 1 0 0 0 .856.484h25.833a1 1 0 0 0 .868-.505l12.915-22.64a1 1 0 0 0-.007-1.002L43.033 39.274a1 1 0 0 0-.862-.493ZM17.737 97.246h-25.85a1 1 0 0 0-.85.472l-13.622 21.917a1 1 0 0 0-.008 1.044l13.632 22.64a1 1 0 0 0 .857.484h25.832a1 1 0 0 0 .869-.505l12.914-22.64a1 1 0 0 0-.007-1.003L18.6 97.739a1 1 0 0 0-.862-.493ZM72.444 97.246h-25.85a1 1 0 0 0-.85.472l-13.622 21.917a1 1 0 0 0-.008 1.044l13.632 22.64a1 1 0 0 0 .857.484h25.832a1 1 0 0 0 .869-.505l12.914-22.64a1 1 0 0 0-.007-1.003L73.306 97.739a1 1 0 0 0-.862-.493ZM12.653-19.684h-25.85a1 1 0 0 0-.85.473L-27.669 2.706a1 1 0 0 0-.008 1.043l13.632 22.64a1 1 0 0 0 .857.484h25.832a1 1 0 0 0 .869-.505l12.914-22.64a1 1 0 0 0-.007-1.002L13.515-19.191a1 1 0 0 0-.862-.493Z"/><path stroke="#BBB" stroke-width=".6" d="M175.521-19.684h-25.683a1 1 0 0 0-.85.475l-13.54 21.917a1 1 0 0 0-.007 1.039l13.549 22.64c.18.301.506.486.858.486h25.664a1 1 0 0 0 .87-.507l12.835-22.64a1 1 0 0 0-.007-.998l-12.826-21.917a1 1 0 0 0-.863-.495ZM342.576 19.547h-21.061c-.347 0-.668.18-.851.474l-11.098 17.937a1 1 0 0 0-.008 1.04l11.108 18.532c.181.301.507.486.858.486h21.043a1 1 0 0 0 .87-.507l10.523-18.531a1 1 0 0 0-.007-1l-10.514-17.937a1 1 0 0 0-.863-.494ZM174.424 46.387H157.56a1 1 0 0 0-.853.477l-8.892 14.508a1 1 0 0 0-.007 1.034l8.901 14.991c.181.304.507.49.86.49h16.846a1 1 0 0 0 .872-.51l8.433-14.992a1 1 0 0 0-.007-.992l-8.424-14.508a1 1 0 0 0-.865-.498ZM119.424 46.387H102.56a1 1 0 0 0-.853.477l-8.892 14.508a1 1 0 0 0-.007 1.034l8.901 14.991c.181.304.507.49.86.49h16.846a1 1 0 0 0 .872-.51l8.433-14.992a1 1 0 0 0-.007-.992l-8.424-14.508a1 1 0 0 0-.865-.498ZM95.424 104.387H78.56c-.348 0-.67.181-.853.477l-8.892 14.508a1 1 0 0 0-.007 1.033l8.901 14.992a1 1 0 0 0 .86.49h16.846a1 1 0 0 0 .872-.51l8.433-14.992a1 1 0 0 0-.007-.993l-8.424-14.507a1 1 0 0 0-.865-.498ZM90.427-11.613h-16.87a1 1 0 0 0-.85.473L63.82 3.203a1 1 0 0 0-.007 1.041l8.895 14.821a1 1 0 0 0 .857.486h16.852a1 1 0 0 0 .87-.506l8.427-14.821a1 1 0 0 0-.007-1L91.29-11.12a1 1 0 0 0-.863-.494Z"/><path stroke="#BBB" stroke-width=".6" d="M144.427-11.613h-16.87a1 1 0 0 0-.85.473l-8.886 14.343a1 1 0 0 0-.007 1.041l8.895 14.821c.18.301.506.486.857.486h16.852a1 1 0 0 0 .87-.506l8.426-14.821a1 1 0 0 0-.006-1L145.29-11.12a1 1 0 0 0-.863-.494ZM198.427-11.613h-16.87a1 1 0 0 0-.85.473l-8.886 14.343a1 1 0 0 0-.007 1.041l8.895 14.821c.18.301.506.486.857.486h16.852a1 1 0 0 0 .87-.506l8.426-14.821a1 1 0 0 0-.006-1L199.29-11.12a1 1 0 0 0-.863-.494ZM252.427-11.613h-16.87a1 1 0 0 0-.85.473l-8.886 14.343a1 1 0 0 0-.007 1.041l8.895 14.821c.18.301.506.486.857.486h16.852a1 1 0 0 0 .87-.506l8.426-14.821a1 1 0 0 0-.006-1L253.29-11.12a1 1 0 0 0-.863-.494ZM306.427-11.613h-16.87a1 1 0 0 0-.85.473l-8.886 14.343a1 1 0 0 0-.007 1.041l8.895 14.821c.18.301.506.486.857.486h16.852a1 1 0 0 0 .87-.506l8.426-14.821a1 1 0 0 0-.006-1L307.29-11.12a1 1 0 0 0-.863-.494ZM360.427-11.613h-16.87a1 1 0 0 0-.85.473l-8.886 14.343a1 1 0 0 0-.007 1.041l8.895 14.821c.18.301.506.486.857.486h16.852a1 1 0 0 0 .87-.506l8.426-14.821a1 1 0 0 0-.006-1L361.29-11.12a1 1 0 0 0-.863-.494ZM64.424 46.387H47.56a1 1 0 0 0-.853.477l-8.892 14.508a1 1 0 0 0-.007 1.034l8.901 14.991a1 1 0 0 0 .86.49h16.846a1 1 0 0 0 .872-.51l8.433-14.992a1 1 0 0 0-.007-.992l-8.424-14.508a1 1 0 0 0-.865-.498ZM40.424 104.387H23.56c-.348 0-.67.181-.853.477l-8.892 14.508a1 1 0 0 0-.007 1.033l8.901 14.992a1 1 0 0 0 .86.49h16.846a1 1 0 0 0 .872-.51l8.433-14.992a1 1 0 0 0-.007-.993l-8.424-14.507a1 1 0 0 0-.865-.498ZM35.427-11.613h-16.87a1 1 0 0 0-.85.473L8.82 3.203a1 1 0 0 0-.007 1.041l8.895 14.821a1 1 0 0 0 .857.486h16.852a1 1 0 0 0 .87-.506l8.427-14.821a1 1 0 0 0-.007-1L36.29-11.12a1 1 0 0 0-.863-.494Z"/><path fill="#32BEC7" d="M84.367 153.002h4.767v4.767h-4.767z"/><path fill="#32BEC7" fill-rule="evenodd" d="m78.37 155.387 8.38 8.38 8.38-8.38-8.38-8.381zm-1.415-.707a1 1 0 0 0 0 1.414l9.088 9.088a1 1 0 0 0 1.414 0l9.088-9.088a1 1 0 0 0 0-1.414l-9.088-9.088a1 1 0 0 0-1.414 0z" clip-rule="evenodd"/><path fill="#32BEC7" d="M15.813 16.816h4.767v4.767h-4.767z"/><path fill="#32BEC7" fill-rule="evenodd" d="m9.815 19.201 8.38 8.38 8.381-8.38-8.38-8.38zM8.4 18.494a1 1 0 0 0 0 1.414l9.088 9.088a1 1 0 0 0 1.415 0l9.087-9.088a1 1 0 0 0 0-1.414l-9.087-9.088a1 1 0 0 0-1.415 0z" clip-rule="evenodd"/><path fill="#32BEC7" d="M39.869 82.871h4.767v4.767h-4.767z"/><path fill="#32BEC7" fill-rule="evenodd" d="m33.871 85.256 8.381 8.38 8.38-8.38-8.38-8.38zm-1.414-.707a1 1 0 0 0 0 1.414l9.088 9.088a1 1 0 0 0 1.414 0l9.088-9.088a1 1 0 0 0 0-1.414l-9.088-9.088a1 1 0 0 0-1.414 0z" clip-rule="evenodd"/><path fill="#32BEC7" d="M108.771 59.752h4.767v4.767h-4.767z"/><path fill="#32BEC7" fill-rule="evenodd" d="m102.774 62.137 8.38 8.38 8.381-8.38-8.381-8.381zm-1.415-.707a1 1 0 0 0 0 1.414l9.088 9.088c.391.39 1.024.39 1.415 0l9.087-9.088a1 1 0 0 0 0-1.414l-9.087-9.088a1 1 0 0 0-1.415 0z" clip-rule="evenodd"/><path fill="#32BEC7" d="M178.174 16.816h4.767v4.767h-4.767z"/><path fill="#32BEC7" fill-rule="evenodd" d="m172.177 19.201 8.381 8.38 8.38-8.38-8.38-8.38zm-1.414-.707a1 1 0 0 0 0 1.414l9.088 9.088a1 1 0 0 0 1.414 0l9.088-9.088a1 1 0 0 0 0-1.414l-9.088-9.088a1 1 0 0 0-1.414 0z" clip-rule="evenodd"/><path fill="#32BEC7" d="M78.867.928h4.767v4.767h-4.767z"/><path fill="#32BEC7" fill-rule="evenodd" d="m72.87 3.313 8.38 8.38 8.38-8.38-8.38-8.381zm-1.415-.708a1 1 0 0 0 0 1.415l9.088 9.088a1 1 0 0 0 1.414 0l9.088-9.088a1 1 0 0 0 0-1.415l-9.088-9.087a1 1 0 0 0-1.414 0z" clip-rule="evenodd"/><path fill="#32BEC7" d="M278.619.928h4.767v4.767h-4.767z"/><path fill="#32BEC7" fill-rule="evenodd" d="m272.621 3.313 8.381 8.38 8.381-8.38-8.381-8.381zm-1.414-.708c-.39.39-.39 1.024 0 1.415l9.088 9.088a1 1 0 0 0 1.414 0l9.088-9.088a1 1 0 0 0 0-1.415l-9.088-9.087a1 1 0 0 0-1.414 0z" clip-rule="evenodd"/><path fill="#32BEC7" d="M20.193 134.016h4.767v4.767h-4.767z"/><path fill="#32BEC7" fill-rule="evenodd" d="m14.196 136.4 8.38 8.381 8.381-8.381-8.38-8.38zm-1.415-.707a1 1 0 0 0 0 1.414l9.088 9.088a1 1 0 0 0 1.414 0l9.088-9.088a1 1 0 0 0 0-1.414l-9.088-9.088a1 1 0 0 0-1.414 0z" clip-rule="evenodd"/></g><defs><clipPath id="a"><path fill="#fff" d="M.008.469h358v154h-358z"/></clipPath></defs></svg>